<?xml version="1.0" encoding="UTF-8"?>
<!DOCTYPE svg PUBLIC "-//W3C//DTD SVG 1.1//EN" "http://www.w3.org/Graphics/SVG/1.1/DTD/svg11.dtd">
<svg xmlns="http://www.w3.org/2000/svg" version="1.1" width="284px" height="177px" style="shape-rendering:geometricPrecision; text-rendering:geometricPrecision; image-rendering:optimizeQuality; fill-rule:evenodd; clip-rule:evenodd" xmlns:xlink="http://www.w3.org/1999/xlink">
<g><path style="opacity:0.004" fill="#00fffe" d="M 230.5,-0.5 C 230.833,-0.5 231.167,-0.5 231.5,-0.5C 231.315,0.170143 230.981,0.170143 230.5,-0.5 Z"/></g>
<g><path style="opacity:0.004" fill="#fefffe" d="M 177.5,0.5 C 178.833,1.16667 178.833,1.16667 177.5,0.5 Z"/></g>
<g><path style="opacity:0.004" fill="#fefffe" d="M 178.5,7.5 C 179.833,8.16667 179.833,8.16667 178.5,7.5 Z"/></g>
<g><path style="opacity:0.004" fill="#fefffe" d="M 40.5,13.5 C 41.8333,14.1667 41.8333,14.1667 40.5,13.5 Z"/></g>
<g><path style="opacity:0.286" fill="#cacacc" d="M 111.5,16.5 C 96.4852,16.1673 81.4852,16.5007 66.5,17.5C 68.22,20.2016 69.8866,22.8682 71.5,25.5C 68.4731,23.471 66.1398,20.8044 64.5,17.5C 65.3805,16.0295 66.7139,15.1962 68.5,15C 82.9809,15.0615 97.3142,15.5615 111.5,16.5 Z"/></g>
<g><path style="opacity:0.973" fill="#f4f4f5" d="M 111.5,16.5 C 114.973,18.6367 117.306,21.6367 118.5,25.5C 121.084,29.9331 123.918,34.2664 127,38.5C 127.671,39.2524 128.504,39.5858 129.5,39.5C 136.073,48.2791 142.906,56.9458 150,65.5C 155.617,60.8999 160.783,55.8999 165.5,50.5C 166.708,49.7659 168.041,49.4326 169.5,49.5C 169.351,48.448 169.517,47.448 170,46.5C 179.167,36.6667 188.333,26.8333 197.5,17C 201.821,16.501 206.154,16.3343 210.5,16.5C 210.649,17.552 210.483,18.552 210,19.5C 206.268,23.0622 202.768,26.7288 199.5,30.5C 194.037,34.1151 189.037,38.9484 184.5,45C 183.552,45.4828 182.552,45.6495 181.5,45.5C 181.371,47.2161 181.038,48.8828 180.5,50.5C 174.239,58.2647 167.406,65.598 160,72.5C 158.699,74.3646 158.365,76.3646 159,78.5C 177.615,104.116 196.615,129.45 216,154.5C 217.128,156.345 217.628,158.345 217.5,160.5C 202.163,160.667 186.83,160.5 171.5,160C 158.05,141.549 144.217,123.382 130,105.5C 124.944,111.626 119.444,117.293 113.5,122.5C 109.899,125.761 106.233,129.094 102.5,132.5C 95.8104,139.858 89.477,147.524 83.5,155.5C 81.1516,159.013 77.8182,161.013 73.5,161.5C 71.1667,160.167 68.8333,160.167 66.5,161.5C 65.3279,161.081 64.3279,160.415 63.5,159.5C 72.917,150.088 81.917,140.421 90.5,130.5C 93.7311,128.78 96.5644,126.447 99,123.5C 103.734,118.274 108.234,112.941 112.5,107.5C 116.187,103.811 119.52,99.8114 122.5,95.5C 105.451,72.1301 88.4506,48.7968 71.5,25.5C 69.8866,22.8682 68.22,20.2016 66.5,17.5C 81.4852,16.5007 96.4852,16.1673 111.5,16.5 Z M 122.5,49.5 C 124.435,53.7066 127.102,57.3733 130.5,60.5C 135.117,68.078 140.45,75.078 146.5,81.5C 160.475,100.482 174.475,119.482 188.5,138.5C 190.738,141.299 192.738,144.299 194.5,147.5C 188.641,148.298 182.641,148.298 176.5,147.5C 174.984,144.467 172.984,141.8 170.5,139.5C 166.598,132.599 161.931,126.266 156.5,120.5C 149.497,111.158 142.497,101.825 135.5,92.5C 131.543,86.5434 127.21,80.8767 122.5,75.5C 115.983,64.3157 108.316,53.9824 99.5,44.5C 97.6033,41.053 95.4367,37.7196 93,34.5C 91.5886,32.3496 90.7553,30.0163 90.5,27.5C 95.5111,27.3341 100.511,27.5007 105.5,28C 110.825,35.5089 116.492,42.6755 122.5,49.5 Z"/></g>
<g><path style="opacity:0.004" fill="#fefffe" d="M 168.5,18.5 C 169.833,19.1667 169.833,19.1667 168.5,18.5 Z"/></g>
<g><path style="opacity:0.004" fill="#fefffe" d="M 171.5,18.5 C 172.833,19.1667 172.833,19.1667 171.5,18.5 Z"/></g>
<g><path style="opacity:0.004" fill="#fefffe" d="M 246.5,21.5 C 247.833,22.1667 247.833,22.1667 246.5,21.5 Z"/></g>
<g><path style="opacity:0.004" fill="#fefffe" d="M 144.5,27.5 C 145.833,28.1667 145.833,28.1667 144.5,27.5 Z"/></g>
<g><path style="opacity:0.004" fill="#fefffe" d="M 56.5,29.5 C 57.8333,30.1667 57.8333,30.1667 56.5,29.5 Z"/></g>
<g><path style="opacity:0.204" fill="#bebdbe" d="M 122.5,49.5 C 116.492,42.6755 110.825,35.5089 105.5,28C 100.511,27.5007 95.5111,27.3341 90.5,27.5C 90.7553,30.0163 91.5886,32.3496 93,34.5C 95.4367,37.7196 97.6033,41.053 99.5,44.5C 94.8386,39.1606 90.5052,33.4939 86.5,27.5C 93.5,26.1667 100.5,26.1667 107.5,27.5C 111.45,33.4513 115.783,39.1179 120.5,44.5C 121.562,46.0217 122.229,47.6883 122.5,49.5 Z"/></g>
<g><path style="opacity:0.004" fill="#fefffe" d="M 202.5,31.5 C 203.833,32.1667 203.833,32.1667 202.5,31.5 Z"/></g>
<g><path style="opacity:0.004" fill="#fefffe" d="M 239.5,32.5 C 240.833,33.1667 240.833,33.1667 239.5,32.5 Z"/></g>
<g><path style="opacity:0.106" fill="#bdbdbd" d="M 118.5,25.5 C 122.899,29.5683 126.565,34.235 129.5,39.5C 128.504,39.5858 127.671,39.2524 127,38.5C 123.918,34.2664 121.084,29.9331 118.5,25.5 Z"/></g>
<g><path style="opacity:0.031" fill="#c4c4c5" d="M 199.5,30.5 C 193.158,37.2086 186.824,43.8752 180.5,50.5C 181.038,48.8828 181.371,47.2161 181.5,45.5C 182.552,45.6495 183.552,45.4828 184.5,45C 189.037,38.9484 194.037,34.1151 199.5,30.5 Z"/></g>
<g><path style="opacity:0.004" fill="#fefffe" d="M 199.5,34.5 C 200.833,35.1667 200.833,35.1667 199.5,34.5 Z"/></g>
<g><path style="opacity:0.004" fill="#fefffe" d="M 2.5,35.5 C 3.83333,36.1667 3.83333,36.1667 2.5,35.5 Z"/></g>
<g><path style="opacity:0.341" fill="#cfcfd1" d="M 210.5,16.5 C 206.154,16.3343 201.821,16.501 197.5,17C 188.333,26.8333 179.167,36.6667 170,46.5C 169.517,47.448 169.351,48.448 169.5,49.5C 168.041,49.4326 166.708,49.7659 165.5,50.5C 175.262,38.5668 185.595,27.0668 196.5,16C 201.292,14.5246 205.959,14.6913 210.5,16.5 Z"/></g>
<g><path style="opacity:0.004" fill="#fefffe" d="M 11.5,41.5 C 12.8333,42.1667 12.8333,42.1667 11.5,41.5 Z"/></g>
<g><path style="opacity:0.004" fill="#fefffe" d="M -0.5,44.5 C 0.833333,45.1667 0.833333,45.1667 -0.5,44.5 Z"/></g>
<g><path style="opacity:0.004" fill="#fefffe" d="M 245.5,47.5 C 246.833,48.1667 246.833,48.1667 245.5,47.5 Z"/></g>
<g><path style="opacity:0.004" fill="#fefffe" d="M 142.5,49.5 C 143.833,50.1667 143.833,50.1667 142.5,49.5 Z"/></g>
<g><path style="opacity:0.004" fill="#fefffe" d="M 230.5,50.5 C 231.833,51.1667 231.833,51.1667 230.5,50.5 Z"/></g>
<g><path style="opacity:0.004" fill="#fefffe" d="M 215.5,53.5 C 216.833,54.1667 216.833,54.1667 215.5,53.5 Z"/></g>
<g><path style="opacity:0.004" fill="#fefffe" d="M 180.5,54.5 C 181.833,55.1667 181.833,55.1667 180.5,54.5 Z"/></g>
<g><path style="opacity:0.004" fill="#fefffe" d="M -0.5,56.5 C 0.833333,57.1667 0.833333,57.1667 -0.5,56.5 Z"/></g>
<g><path style="opacity:0.004" fill="#fefffe" d="M 4.5,58.5 C 5.83333,59.1667 5.83333,59.1667 4.5,58.5 Z"/></g>
<g><path style="opacity:0.004" fill="#fefffe" d="M 31.5,61.5 C 32.8333,62.1667 32.8333,62.1667 31.5,61.5 Z"/></g>
<g><path style="opacity:0.004" fill="#fefffe" d="M 96.5,63.5 C 97.8333,64.1667 97.8333,64.1667 96.5,63.5 Z"/></g>
<g><path style="opacity:0.004" fill="#fefffe" d="M 68.5,65.5 C 69.8333,66.1667 69.8333,66.1667 68.5,65.5 Z"/></g>
<g><path style="opacity:0.082" fill="#c3c3c5" d="M 130.5,60.5 C 134.417,64.5942 138.25,68.9275 142,73.5C 144.157,75.8171 145.657,78.4838 146.5,81.5C 140.45,75.078 135.117,68.078 130.5,60.5 Z"/></g>
<g><path style="opacity:0.004" fill="#fefffe" d="M 79.5,70.5 C 80.8333,71.1667 80.8333,71.1667 79.5,70.5 Z"/></g>
<g><path style="opacity:0.004" fill="#fefffe" d="M 184.5,73.5 C 185.833,74.1667 185.833,74.1667 184.5,73.5 Z"/></g>
<g><path style="opacity:0.004" fill="#fefffe" d="M 220.5,76.5 C 221.833,77.1667 221.833,77.1667 220.5,76.5 Z"/></g>
<g><path style="opacity:0.004" fill="#fefffe" d="M 169.5,79.5 C 170.833,80.1667 170.833,80.1667 169.5,79.5 Z"/></g>
<g><path style="opacity:0.004" fill="#fefffe" d="M 268.5,79.5 C 269.833,80.1667 269.833,80.1667 268.5,79.5 Z"/></g>
<g><path style="opacity:0.004" fill="#fefffe" d="M 81.5,81.5 C 82.8333,82.1667 82.8333,82.1667 81.5,81.5 Z"/></g>
<g><path style="opacity:0.004" fill="#fefffe" d="M 23.5,83.5 C 24.8333,84.1667 24.8333,84.1667 23.5,83.5 Z"/></g>
<g><path style="opacity:0.149" fill="#c7c6cb" d="M 122.5,75.5 C 127.21,80.8767 131.543,86.5434 135.5,92.5C 130.024,87.6924 125.69,82.0258 122.5,75.5 Z"/></g>
<g><path style="opacity:0.004" fill="#fefffe" d="M 99.5,105.5 C 100.833,106.167 100.833,106.167 99.5,105.5 Z"/></g>
<g><path style="opacity:0.004" fill="#fefffe" d="M 276.5,105.5 C 277.833,106.167 277.833,106.167 276.5,105.5 Z"/></g>
<g><path style="opacity:0.004" fill="#fefffe" d="M 256.5,109.5 C 257.833,110.167 257.833,110.167 256.5,109.5 Z"/></g>
<g><path style="opacity:0.004" fill="#fefffe" d="M 204.5,111.5 C 205.833,112.167 205.833,112.167 204.5,111.5 Z"/></g>
<g><path style="opacity:0.004" fill="#fefffe" d="M 191.5,113.5 C 192.833,114.167 192.833,114.167 191.5,113.5 Z"/></g>
<g><path style="opacity:0.204" fill="#c0c0c1" d="M 112.5,107.5 C 108.234,112.941 103.734,118.274 99,123.5C 96.5644,126.447 93.7311,128.78 90.5,130.5C 97.1317,122.201 104.465,114.534 112.5,107.5 Z"/></g>
<g><path style="opacity:0.004" fill="#fefffe" d="M 234.5,123.5 C 235.833,124.167 235.833,124.167 234.5,123.5 Z"/></g>
<g><path style="opacity:0.004" fill="#fefffe" d="M 267.5,129.5 C 268.833,130.167 268.833,130.167 267.5,129.5 Z"/></g>
<g><path style="opacity:0.004" fill="#fefffe" d="M 25.5,130.5 C 26.8333,131.167 26.8333,131.167 25.5,130.5 Z"/></g>
<g><path style="opacity:0.116" fill="#c0c0c0" d="M 156.5,120.5 C 161.931,126.266 166.598,132.599 170.5,139.5C 165.069,133.734 160.402,127.401 156.5,120.5 Z"/></g>
<g><path style="opacity:0.004" fill="#fefffe" d="M 254.5,134.5 C 255.833,135.167 255.833,135.167 254.5,134.5 Z"/></g>
<g><path style="opacity:0.004" fill="#fefffe" d="M 38.5,137.5 C 39.8333,138.167 39.8333,138.167 38.5,137.5 Z"/></g>
<g><path style="opacity:0.004" fill="#fefffe" d="M 73.5,139.5 C 74.8333,140.167 74.8333,140.167 73.5,139.5 Z"/></g>
<g><path style="opacity:0.004" fill="#fefffe" d="M 118.5,139.5 C 119.833,140.167 119.833,140.167 118.5,139.5 Z"/></g>
<g><path style="opacity:0.004" fill="#fefffe" d="M 43.5,145.5 C 44.8333,146.167 44.8333,146.167 43.5,145.5 Z"/></g>
<g><path style="opacity:0.071" fill="#cbcbcc" d="M 113.5,122.5 C 104.21,134.124 94.2102,145.124 83.5,155.5C 89.477,147.524 95.8104,139.858 102.5,132.5C 106.233,129.094 109.899,125.761 113.5,122.5 Z"/></g>
<g><path style="opacity:0.004" fill="#fefffe" d="M 48.5,147.5 C 49.8333,148.167 49.8333,148.167 48.5,147.5 Z"/></g>
<g><path style="opacity:0.004" fill="#fefffe" d="M 252.5,147.5 C 253.833,148.167 253.833,148.167 252.5,147.5 Z"/></g>
<g><path style="opacity:0.004" fill="#fefffe" d="M 64.5,148.5 C 65.8333,149.167 65.8333,149.167 64.5,148.5 Z"/></g>
<g><path style="opacity:0.063" fill="#c1c1c1" d="M 188.5,138.5 C 190.044,138.703 191.378,139.37 192.5,140.5C 193.662,143.494 195.329,146.16 197.5,148.5C 194,148.833 190.5,149.167 187,149.5C 183.098,149.488 179.598,148.821 176.5,147.5C 182.641,148.298 188.641,148.298 194.5,147.5C 192.738,144.299 190.738,141.299 188.5,138.5 Z"/></g>
<g><path style="opacity:0.004" fill="#fefffe" d="M 95.5,158.5 C 96.8333,159.167 96.8333,159.167 95.5,158.5 Z"/></g>
<g><path style="opacity:0.004" fill="#fefffe" d="M 275.5,161.5 C 276.833,162.167 276.833,162.167 275.5,161.5 Z"/></g>
<g><path style="opacity:0.004" fill="#fefffe" d="M 44.5,164.5 C 45.8333,165.167 45.8333,165.167 44.5,164.5 Z"/></g>
<g><path style="opacity:0.004" fill="#fefffe" d="M 47.5,167.5 C 48.8333,168.167 48.8333,168.167 47.5,167.5 Z"/></g>
<g><path style="opacity:0.004" fill="#fefffe" d="M 213.5,174.5 C 214.833,175.167 214.833,175.167 213.5,174.5 Z"/></g>
</svg>
